<svg xmlns="http://www.w3.org/2000/svg" xmlns:xlink="http://www.w3.org/1999/xlink" xmlns:lucid="lucid" width="840" height="720"><g transform="translate(20 20)" lucid:page-tab-id="0_0"><path d="M487.38 343.33c0 42.87-39.12 77.63-87.38 77.63s-87.38-34.76-87.38-77.63c0-42.88 39.12-77.64 87.38-77.64s87.38 34.75 87.38 77.63z" stroke="#000" stroke-opacity="0" stroke-width="2" fill="#489bfc"/><use xlink:href="#a" transform="matrix(1,0,0,1,312.6164961138467,265.6948111879507) translate(5.26888888888891 87.46000000000001)"/><path d="M400 264.7v-48.14" stroke="#000" stroke-width="2" fill="none"/><path d="M401 265.72l-1-.03h-1v-1.03h2z" stroke="#000" stroke-width=".05"/><path d="M400 201.3l4.64 14.26h-9.28z" stroke="#000" stroke-width="2"/><path d="M480.1 310.1l131.7-38.36" stroke="#000" stroke-width="2" fill="none"/><path d="M480.4 311.05l-.8.23-.37-.74-.6-1.06 1.2-.35z" stroke="#000" stroke-width=".05"/><path d="M626.45 267.47l-12.4 8.44-2.6-8.9z" stroke="#000" stroke-width="2"/><path d="M319.93 310.07l-109.57-69.04" stroke="#000" stroke-width="2" fill="none"/><path d="M321.24 309.7l-.94 1.8-.93-.6 1.07-1.7z" stroke="#000" stroke-width=".05"/><path d="M197.44 232.9l14.54 3.68-4.94 7.84z" stroke="#000" stroke-width="2"/><path d="M400 421.96v41.48" stroke="#000" stroke-width="2" fill="none"/><path d="M400 420.96h1v1.03h-2v-1.07z" stroke="#000" stroke-width=".05"/><path d="M400 478.7l-4.64-14.26h9.28z" stroke="#000" stroke-width="2"/><path d="M319.94 376.67l-107.05 44.9" stroke="#000" stroke-width="2" fill="none"/><path d="M320.77 376.12l.6 1.04-1.07.44-.77-1.84.88-.37z" stroke="#000" stroke-width=".05"/><path d="M198.82 427.47l11.36-9.8 3.6 8.56z" stroke="#000" stroke-width="2"/><path d="M483.87 368.15l111.38 45.93" stroke="#000" stroke-width="2" fill="none"/><path d="M484.27 367.23l-.76 1.85-.92-.38.72-1.85v-.02z" stroke="#000" stroke-width=".05"/><path d="M609.36 419.9l-14.95-1.16 3.54-8.57z" stroke="#000" stroke-width="2"/><path d="M577.78 182.33a98.7 98.7 0 0 1 98.7-98.7h24.8a98.7 98.7 0 0 1 98.72 98.7 98.7 98.7 0 0 1-98.7 98.72h-24.8a98.7 98.7 0 0 1-98.72-98.72z" stroke="#1071e5" stroke-width="2" fill="#edf5ff"/><use xlink:href="#b" transform="matrix(1,0,0,1,593.7777777777778,99.61915134467607) translate(9.49222222222221 63.126666666666665)"/><use xlink:href="#c" transform="matrix(1,0,0,1,593.7777777777778,99.61915134467607) translate(132.19111111111113 63.126666666666665)"/><use xlink:href="#d" transform="matrix(1,0,0,1,593.7777777777778,99.61915134467607) translate(26.230555555555554 92.46000000000001)"/><use xlink:href="#e" transform="matrix(1,0,0,1,593.7777777777778,99.61915134467607) translate(144.24833333333333 92.46000000000001)"/><use xlink:href="#f" transform="matrix(1,0,0,1,593.7777777777778,99.61915134467607) translate(67.98166666666665 121.79333333333334)"/><path d="M288.9 98.7A98.7 98.7 0 0 1 387.6 0h24.8a98.7 98.7 0 0 1 98.7 98.7 98.7 98.7 0 0 1-98.7 98.73h-24.8a98.7 98.7 0 0 1-98.7-98.72z" stroke="#1071e5" stroke-width="2" fill="#edf5ff"/><use xlink:href="#g" transform="matrix(1,0,0,1,304.8888888888889,16) translate(46.690555555555555 63.126666666666665)"/><use xlink:href="#h" transform="matrix(1,0,0,1,304.8888888888889,16) translate(98.65944444444445 63.126666666666665)"/><use xlink:href="#i" transform="matrix(1,0,0,1,304.8888888888889,16) translate(26.80499999999998 92.46000000000001)"/><use xlink:href="#j" transform="matrix(1,0,0,1,304.8888888888889,16) translate(66.64333333333333 121.79333333333334)"/><path d="M0 177.7a80 80 0 0 1 80-80h62.22a80 80 0 0 1 80 80 80 80 0 0 1-80 80H80a80 80 0 0 1-80-80z" stroke="#1071e5" stroke-width="2" fill="#edf5ff"/><use xlink:href="#k" transform="matrix(1,0,0,1,16,113.68535889188612) translate(28.247222222222206 29.460000000000004)"/><use xlink:href="#l" transform="matrix(1,0,0,1,16,113.68535889188612) translate(122.44388888888889 29.460000000000004)"/><use xlink:href="#m" transform="matrix(1,0,0,1,16,113.68535889188612) translate(27.36722222222221 58.79333333333334)"/><use xlink:href="#n" transform="matrix(1,0,0,1,16,113.68535889188612) translate(96.31277777777777 58.79333333333334)"/><use xlink:href="#o" transform="matrix(1,0,0,1,16,113.68535889188612) translate(16.856111111111105 88.12666666666667)"/><use xlink:href="#p" transform="matrix(1,0,0,1,16,113.68535889188612) translate(79.04277777777777 88.12666666666667)"/><use xlink:href="#q" transform="matrix(1,0,0,1,16,113.68535889188612) translate(150.26166666666666 88.12666666666667)"/><use xlink:href="#r" transform="matrix(1,0,0,1,16,113.68535889188612) translate(61.30222222222222 117.46000000000001)"/><path d="M577.78 493.57a98.7 98.7 0 0 1 98.7-98.7h24.8a98.7 98.7 0 0 1 98.72 98.7 98.7 98.7 0 0 1-98.7 98.7h-24.8a98.7 98.7 0 0 1-98.72-98.7z" stroke="#1071e5" stroke-width="2" fill="#edf5ff"/><g><use xlink:href="#s" transform="matrix(1,0,0,1,593.7777777777778,410.8563530930802) translate(19.37388888888887 48.46000000000001)"/><use xlink:href="#t" transform="matrix(1,0,0,1,593.7777777777778,410.8563530930802) translate(148.26944444444445 48.46000000000001)"/><use xlink:href="#u" transform="matrix(1,0,0,1,593.7777777777778,410.8563530930802) translate(10.268333333333317 77.79333333333334)"/><use xlink:href="#v" transform="matrix(1,0,0,1,593.7777777777778,410.8563530930802) translate(100.55388888888889 77.79333333333334)"/><use xlink:href="#w" transform="matrix(1,0,0,1,593.7777777777778,410.8563530930802) translate(66.64333333333333 107.12666666666667)"/><use xlink:href="#x" transform="matrix(1,0,0,1,593.7777777777778,410.8563530930802) translate(23.676111111111098 136.46)"/></g><path d="M288.9 581.3a98.7 98.7 0 0 1 98.7-98.73h24.8a98.7 98.7 0 0 1 98.7 98.72 98.7 98.7 0 0 1-98.7 98.7h-24.8a98.7 98.7 0 0 1-98.7-98.7z" stroke="#1071e5" stroke-width="2" fill="#edf5ff"/><g><use xlink:href="#y" transform="matrix(1,0,0,1,304.8888888888889,498.57182345345996) translate(16.483333333333334 63.126666666666665)"/><use xlink:href="#z" transform="matrix(1,0,0,1,304.8888888888889,498.57182345345996) translate(94.86444444444444 63.126666666666665)"/><use xlink:href="#A" transform="matrix(1,0,0,1,304.8888888888889,498.57182345345996) translate(122.93888888888888 63.126666666666665)"/><use xlink:href="#B" transform="matrix(1,0,0,1,304.8888888888889,498.57182345345996) translate(4.206111111111099 92.46000000000001)"/><use xlink:href="#C" transform="matrix(1,0,0,1,304.8888888888889,498.57182345345996) translate(72.63833333333334 92.46000000000001)"/><use xlink:href="#D" transform="matrix(1,0,0,1,304.8888888888889,498.57182345345996) translate(126.67277777777778 92.46000000000001)"/><use xlink:href="#e" transform="matrix(1,0,0,1,304.8888888888889,498.57182345345996) translate(166.27277777777778 92.46000000000001)"/><use xlink:href="#E" transform="matrix(1,0,0,1,304.8888888888889,498.57182345345996) translate(87.45777777777778 121.79333333333334)"/></g><path d="M0 493.57a98.7 98.7 0 0 1 98.7-98.7h24.8a98.7 98.7 0 0 1 98.72 98.7 98.7 98.7 0 0 1-98.7 98.7H98.7A98.7 98.7 0 0 1 0 493.58z" stroke="#1071e5" stroke-width="2" fill="#edf5ff"/><g><use xlink:href="#F" transform="matrix(1,0,0,1,16,410.8563530930802) translate(26.835555555555544 63.126666666666665)"/><use xlink:href="#G" transform="matrix(1,0,0,1,16,410.8563530930802) translate(91.69888888888889 63.126666666666665)"/><use xlink:href="#H" transform="matrix(1,0,0,1,16,410.8563530930802) translate(14.002222222222215 92.46000000000001)"/><use xlink:href="#I" transform="matrix(1,0,0,1,16,410.8563530930802) translate(128.28000000000003 92.46000000000001)"/><use xlink:href="#e" transform="matrix(1,0,0,1,16,410.8563530930802) translate(156.4766666666667 92.46000000000001)"/><use xlink:href="#J" transform="matrix(1,0,0,1,16,410.8563530930802) translate(2.7455555555555406 121.79333333333334)"/><use xlink:href="#K" transform="matrix(1,0,0,1,16,410.8563530930802) translate(148.3 121.79333333333334)"/></g><defs><path fill="#fff" d="M247-436C153-487 80-575 80-712c0-228 174-332 407-332 92 0 169 20 230 53h295c-4 63 19 133-53 146l-92 17c30 74 25 184-9 254-72 146-265 223-484 183-51 27-68 81-20 111 145 54 395 5 528 91 60 38 108 95 104 193-8 182-136 275-286 326-172 59-444 28-556-52C83 234 32 179 32 90c0-112 77-164 166-199-49-28-87-70-84-147 4-94 65-143 133-180zm247 621c132 0 252-20 264-139-10-98-129-93-228-102-63-6-132-5-191-13-47 27-93 62-93 127 0 112 123 127 248 127zM305-706c0 111 68 168 182 168s182-56 182-168c0-107-68-165-182-165s-182 58-182 165" id="L"/><path fill="#fff" d="M361-1005c121-49 297-49 417 0 184 74 298 236 298 490 0 330-178 530-506 530C241 15 61-185 61-515c0-254 115-416 300-490zm-45 492c0 201 65 338 254 338 188 0 251-137 251-338s-63-340-251-340c-189 0-254 139-254 340" id="M"/><path fill="#fff" d="M502-1045c120-1 193 43 256 101v-542h247V0c-80-9-199 29-214-45l-20-99C693-58 601 15 441 15 163 15 61-217 61-510c0-241 98-411 259-494 54-27 115-41 182-41zM316-510c0 181 36 329 209 329 118 0 173-54 233-123v-460c-48-59-104-93-198-93-188 0-244 151-244 347" id="N"/><path fill="#fff" d="M100-707h518v206H100v-206" id="O"/><path fill="#fff" d="M605-850c-102 1-168 52-226 108V0H132v-1486h247v571c76-69 161-129 301-127 234 4 346 154 346 389V0H779v-653c0-121-55-198-174-197" id="P"/><path fill="#fff" d="M738-75c-64 55-158 90-269 91-176 2-277-109-277-284v-573c-65-4-153 21-153-52v-98l165-27 52-280c10-66 115-35 183-42v323h270v176H439v556c-1 59 32 101 88 102 48 1 68-25 104-34 19 1 25 9 33 22" id="Q"/><path fill="#fff" d="M635 15C514 15 442-25 379-85v420H132v-1361c64 5 145-11 192 11 33 24 28 86 42 129 78-86 174-159 331-159 277 0 379 232 379 524 0 241-96 412-258 495-54 27-116 41-183 41zm186-536c0-181-37-329-209-329-117 0-175 55-233 124v460c48 60 104 93 198 93 188 0 244-152 244-348" id="R"/><path fill="#fff" d="M556-1045c246 0 380 151 380 397V0c-79-6-181 23-196-53l-22-73C630-49 541 18 379 16 194 13 81-77 81-262c0-184 152-247 321-292 78-21 176-31 293-34 10-155-29-262-170-262-104 0-161 40-224 77-47 28-107 5-127-31l-45-79c118-108 260-162 427-162zM317-275c-3 86 56 121 139 121 117 0 179-51 239-111v-173c-122 6-219 17-297 53-49 22-79 51-81 110" id="S"/><path fill="#fff" d="M395-1026V0H148v-1026h247zm-123-457c96 0 160 62 160 158 0 94-65 155-160 155-93 0-156-62-156-155 0-95 61-158 156-158" id="T"/><g id="a"><use transform="matrix(0.012222222222222221,0,0,0.012222222222222221,0,0)" xlink:href="#L"/><use transform="matrix(0.012222222222222221,0,0,0.012222222222222221,12.649999999999999,0)" xlink:href="#M"/><use transform="matrix(0.012222222222222221,0,0,0.012222222222222221,26.546666666666663,0)" xlink:href="#N"/><use transform="matrix(0.012222222222222221,0,0,0.012222222222222221,40.48,0)" xlink:href="#M"/><use transform="matrix(0.012222222222222221,0,0,0.012222222222222221,54.376666666666665,0)" xlink:href="#L"/><use transform="matrix(0.012222222222222221,0,0,0.012222222222222221,67.02666666666667,0)" xlink:href="#O"/><use transform="matrix(0.012222222222222221,0,0,0.012222222222222221,75.80222222222223,0)" xlink:href="#P"/><use transform="matrix(0.012222222222222221,0,0,0.012222222222222221,89.69888888888889,0)" xlink:href="#Q"/><use transform="matrix(0.012222222222222221,0,0,0.012222222222222221,99.15888888888888,0)" xlink:href="#Q"/><use transform="matrix(0.012222222222222221,0,0,0.012222222222222221,108.61888888888888,0)" xlink:href="#R"/><use transform="matrix(0.012222222222222221,0,0,0.012222222222222221,122.44222222222221,0)" xlink:href="#O"/><use transform="matrix(0.012222222222222221,0,0,0.012222222222222221,131.21777777777777,0)" xlink:href="#S"/><use transform="matrix(0.012222222222222221,0,0,0.012222222222222221,144.01444444444442,0)" xlink:href="#R"/><use transform="matrix(0.012222222222222221,0,0,0.012222222222222221,157.83777777777775,0)" xlink:href="#T"/></g><path fill="#3d4752" d="M1377-1015c71 172 71 412 0 584C1271-174 1052 0 698 0H146v-1446h552c353 6 574 175 679 431zM698-214c307-9 457-198 457-509s-150-500-457-509H417v1018h281" id="U"/><path fill="#3d4752" d="M991-153C899-47 760 15 568 15 237 15 63-197 63-535c0-237 116-392 287-467 61-27 129-40 206-40 287 0 444 174 444 465 0 54-3 95-57 95H309c4 226 158 349 385 292 52-13 93-39 132-62 32-19 73-16 93 9zM778-631c-4-143-73-234-217-234-154 0-226 95-247 234h464" id="V"/><path fill="#3d4752" d="M646 0H422L14-1026h205c36-1 62 20 71 46 75 215 159 421 226 642 9 30 15 61 21 92 13-66 27-126 50-186l203-548c9-25 34-46 68-46h195" id="W"/><path fill="#3d4752" d="M395-1486V0H148v-1486h247" id="X"/><path fill="#3d4752" d="M361-1005c121-49 297-49 417 0 184 74 298 236 298 490 0 330-178 530-506 530C241 15 61-185 61-515c0-254 115-416 300-490zm-45 492c0 201 65 338 254 338 188 0 251-137 251-338s-63-340-251-340c-189 0-254 139-254 340" id="Y"/><path fill="#3d4752" d="M635 15C514 15 442-25 379-85v420H132v-1361c64 5 145-11 192 11 33 24 28 86 42 129 78-86 174-159 331-159 277 0 379 232 379 524 0 241-96 412-258 495-54 27-116 41-183 41zm186-536c0-181-37-329-209-329-117 0-175 55-233 124v460c48 60 104 93 198 93 188 0 244-152 244-348" id="Z"/><path fill="#3d4752" d="M502-1045c120-1 193 43 256 101v-542h247V0c-80-9-199 29-214-45l-20-99C693-58 601 15 441 15 163 15 61-217 61-510c0-241 98-411 259-494 54-27 115-41 182-41zM316-510c0 181 36 329 209 329 118 0 173-54 233-123v-460c-48-59-104-93-198-93-188 0-244 151-244 347" id="aa"/><g id="b"><use transform="matrix(0.012222222222222223,0,0,0.012222222222222223,0,0)" xlink:href="#U"/><use transform="matrix(0.012222222222222223,0,0,0.012222222222222223,18.272222222222222,0)" xlink:href="#V"/><use transform="matrix(0.012222222222222223,0,0,0.012222222222222223,30.934444444444445,0)" xlink:href="#W"/><use transform="matrix(0.012222222222222223,0,0,0.012222222222222223,43.57222222222222,0)" xlink:href="#V"/><use transform="matrix(0.012222222222222223,0,0,0.012222222222222223,56.63777777777778,0)" xlink:href="#X"/><use transform="matrix(0.012222222222222223,0,0,0.012222222222222223,63.26222222222223,0)" xlink:href="#Y"/><use transform="matrix(0.012222222222222223,0,0,0.012222222222222223,77.1588888888889,0)" xlink:href="#Z"/><use transform="matrix(0.012222222222222223,0,0,0.012222222222222223,90.98222222222223,0)" xlink:href="#V"/><use transform="matrix(0.012222222222222223,0,0,0.012222222222222223,104.04777777777781,0)" xlink:href="#aa"/></g><path fill="#3d4752" d="M7-1026h196c35-1 64 19 71 46 60 241 137 465 181 722 68-246 151-481 220-724 17-60 103-44 175-46 35-1 61 20 69 46 70 242 148 477 212 725 47-256 125-482 189-723 21-78 165-35 255-46L1250 0h-199c-21 0-37-15-46-44-67-218-136-432-201-652-5-20-10-39-13-58-8 41-17 80-29 119L575-44c-9 29-27 44-54 44H332" id="ab"/><path fill="#3d4752" d="M395-1026V0H148v-1026h247zm-123-457c96 0 160 62 160 158 0 94-65 155-160 155-93 0-156-62-156-155 0-95 61-158 156-158" id="ac"/><path fill="#3d4752" d="M738-75c-64 55-158 90-269 91-176 2-277-109-277-284v-573c-65-4-153 21-153-52v-98l165-27 52-280c10-66 115-35 183-42v323h270v176H439v556c-1 59 32 101 88 102 48 1 68-25 104-34 19 1 25 9 33 22" id="ad"/><path fill="#3d4752" d="M605-850c-102 1-168 52-226 108V0H132v-1486h247v571c76-69 161-129 301-127 234 4 346 154 346 389V0H779v-653c0-121-55-198-174-197" id="ae"/><g id="c"><use transform="matrix(0.012222222222222223,0,0,0.012222222222222223,0,0)" xlink:href="#ab"/><use transform="matrix(0.012222222222222223,0,0,0.012222222222222223,19.33555555555556,0)" xlink:href="#ac"/><use transform="matrix(0.012222222222222223,0,0,0.012222222222222223,25.96,0)" xlink:href="#ad"/><use transform="matrix(0.012222222222222223,0,0,0.012222222222222223,35.42,0)" xlink:href="#ae"/></g><path fill="#3d4752" d="M638 15c-134 0-208-58-269-132-10 52-5 117-71 117H135v-1486h247v586c77-79 169-142 318-142 277 0 379 230 379 521 0 241-97 412-259 495-54 27-115 41-182 41zm186-536c0-181-37-329-209-329-117 0-175 55-233 124v460c48 61 104 93 199 93 187 0 243-152 243-348" id="af"/><path fill="#3d4752" d="M457 16c-234 0-346-155-346-390v-652h247v652c0 121 55 198 174 197 102-1 168-51 226-107v-742h247V0c-80-9-199 29-214-45l-17-82C697-50 608 16 457 16" id="ag"/><path fill="#3d4752" d="M247-436C153-487 80-575 80-712c0-228 174-332 407-332 92 0 169 20 230 53h295c-4 63 19 133-53 146l-92 17c30 74 25 184-9 254-72 146-265 223-484 183-51 27-68 81-20 111 145 54 395 5 528 91 60 38 108 95 104 193-8 182-136 275-286 326-172 59-444 28-556-52C83 234 32 179 32 90c0-112 77-164 166-199-49-28-87-70-84-147 4-94 65-143 133-180zm247 621c132 0 252-20 264-139-10-98-129-93-228-102-63-6-132-5-191-13-47 27-93 62-93 127 0 112 123 127 248 127zM305-706c0 111 68 168 182 168s182-56 182-168c0-107-68-165-182-165s-182 58-182 165" id="ah"/><path fill="#3d4752" d="M605-850c-102 1-168 52-226 108V0H132v-1026c80 9 198-29 214 45l17 81c77-76 165-142 317-142 235 0 346 154 346 389V0H779v-653c0-121-55-198-174-197" id="ai"/><g id="d"><use transform="matrix(0.012222222222222223,0,0,0.012222222222222223,0,0)" xlink:href="#aa"/><use transform="matrix(0.012222222222222223,0,0,0.012222222222222223,13.933333333333334,0)" xlink:href="#V"/><use transform="matrix(0.012222222222222223,0,0,0.012222222222222223,26.99888888888889,0)" xlink:href="#af"/><use transform="matrix(0.012222222222222223,0,0,0.012222222222222223,40.93222222222222,0)" xlink:href="#ag"/><use transform="matrix(0.012222222222222223,0,0,0.012222222222222223,54.82888888888889,0)" xlink:href="#ah"/><use transform="matrix(0.012222222222222223,0,0,0.012222222222222223,67.47888888888889,0)" xlink:href="#ah"/><use transform="matrix(0.012222222222222223,0,0,0.012222222222222223,80.1288888888889,0)" xlink:href="#ac"/><use transform="matrix(0.012222222222222223,0,0,0.012222222222222223,86.75333333333334,0)" xlink:href="#ai"/><use transform="matrix(0.012222222222222223,0,0,0.012222222222222223,100.65,0)" xlink:href="#ah"/></g><g id="e"><use transform="matrix(0.012222222222222223,0,0,0.012222222222222223,0,0)" xlink:href="#ac"/><use transform="matrix(0.012222222222222223,0,0,0.012222222222222223,6.624444444444444,0)" xlink:href="#ai"/></g><path fill="#3d4752" d="M565-850c-86 0-140 48-186 99V0H132v-1026c80 9 198-29 214 45l16 76c67-72 141-136 276-137 139-1 214 86 253 192 57-117 162-192 328-192 240 0 354 147 354 389V0h-247v-653c1-123-52-197-169-197s-180 76-180 197V0H729v-653c0-127-46-197-164-197" id="aj"/><g id="f"><use transform="matrix(0.012222222222222223,0,0,0.012222222222222223,0,0)" xlink:href="#aj"/><use transform="matrix(0.012222222222222223,0,0,0.012222222222222223,20.582222222222224,0)" xlink:href="#ac"/><use transform="matrix(0.012222222222222223,0,0,0.012222222222222223,27.206666666666667,0)" xlink:href="#ai"/><use transform="matrix(0.012222222222222223,0,0,0.012222222222222223,41.10333333333334,0)" xlink:href="#aa"/></g><path fill="#3d4752" d="M1124-545c-9 73 30 192-51 192H942V0H726v-353H116c-87-3-71-110-93-179l685-915h234v902h182zm-398 0c4-206-9-426 9-619L286-545h440" id="ak"/><path fill="#3d4752" d="M1070-1052c53 175 53 482 0 658C999-159 862 16 578 16 296 16 159-161 90-394c-52-176-53-483 0-658 70-234 205-410 488-410s422 177 492 410zM682-214c189-91 201-498 150-769-29-152-89-274-254-274-162 0-222 123-250 274-49 269-39 678 148 769 66 32 140 32 206 0" id="al"/><path fill="#3d4752" d="M678-1173v410h389v183H678v412H478v-412H91v-183h387v-410h200" id="am"/><g id="g"><use transform="matrix(0.012222222222222223,0,0,0.012222222222222223,0,0)" xlink:href="#ak"/><use transform="matrix(0.012222222222222223,0,0,0.012222222222222223,14.177777777777779,0)" xlink:href="#al"/><use transform="matrix(0.012222222222222223,0,0,0.012222222222222223,28.355555555555558,0)" xlink:href="#am"/></g><g id="h"><use transform="matrix(0.012222222222222223,0,0,0.012222222222222223,0,0)" xlink:href="#ab"/><use transform="matrix(0.012222222222222223,0,0,0.012222222222222223,19.33555555555556,0)" xlink:href="#V"/><use transform="matrix(0.012222222222222223,0,0,0.012222222222222223,32.40111111111111,0)" xlink:href="#X"/><use transform="matrix(0.012222222222222223,0,0,0.012222222222222223,39.025555555555556,0)" xlink:href="#X"/></g><path fill="#3d4752" d="M928-153C839-49 712 15 524 15c-227 0-358-131-424-305-47-123-49-306-4-434 67-190 213-318 465-318 165 0 270 58 357 143-29 37-52 81-86 112-71 26-104-41-170-55-24-5-52-12-86-12-192 5-260 143-260 339 0 194 67 336 254 342 98 3 148-38 200-79 26-20 67-17 87 9" id="an"/><g id="i"><use transform="matrix(0.012222222222222223,0,0,0.012222222222222223,0,0)" xlink:href="#aa"/><use transform="matrix(0.012222222222222223,0,0,0.012222222222222223,13.933333333333334,0)" xlink:href="#Y"/><use transform="matrix(0.012222222222222223,0,0,0.012222222222222223,27.830000000000002,0)" xlink:href="#an"/><use transform="matrix(0.012222222222222223,0,0,0.012222222222222223,39.49,0)" xlink:href="#ag"/><use transform="matrix(0.012222222222222223,0,0,0.012222222222222223,53.38666666666667,0)" xlink:href="#aj"/><use transform="matrix(0.012222222222222223,0,0,0.012222222222222223,73.9688888888889,0)" xlink:href="#V"/><use transform="matrix(0.012222222222222223,0,0,0.012222222222222223,87.03444444444446,0)" xlink:href="#ai"/><use transform="matrix(0.012222222222222223,0,0,0.012222222222222223,100.93111111111114,0)" xlink:href="#ad"/><use transform="matrix(0.012222222222222223,0,0,0.012222222222222223,110.39111111111114,0)" xlink:href="#V"/><use transform="matrix(0.012222222222222223,0,0,0.012222222222222223,123.45666666666669,0)" xlink:href="#aa"/></g><path fill="#3d4752" d="M254-198c95 60 334 64 323-83-9-119-156-122-253-159C192-490 72-550 72-729c0-214 163-309 387-313 145-3 264 55 338 127-26 36-45 82-77 111-69 21-111-33-176-48-103-23-247 0-238 102 11 114 156 118 251 155 126 49 251 100 251 270C808-59 575 48 294 6 192-9 106-54 42-110c28-39 43-95 83-120 49-31 96 11 129 32" id="ao"/><g id="j"><use transform="matrix(0.012222222222222223,0,0,0.012222222222222223,0,0)" xlink:href="#ao"/><use transform="matrix(0.012222222222222223,0,0,0.012222222222222223,10.682222222222222,0)" xlink:href="#ad"/><use transform="matrix(0.012222222222222223,0,0,0.012222222222222223,20.142222222222223,0)" xlink:href="#V"/><use transform="matrix(0.012222222222222223,0,0,0.012222222222222223,33.20777777777778,0)" xlink:href="#Z"/><use transform="matrix(0.012222222222222223,0,0,0.012222222222222223,47.031111111111116,0)" xlink:href="#ao"/></g><path fill="#3d4752" d="M1366 0h-271v-632H417V0H146v-1446h271v622h678v-622h271V0" id="ap"/><path fill="#3d4752" d="M556-1045c246 0 380 151 380 397V0c-79-6-181 23-196-53l-22-73C630-49 541 18 379 16 194 13 81-77 81-262c0-184 152-247 321-292 78-21 176-31 293-34 10-155-29-262-170-262-104 0-161 40-224 77-47 28-107 5-127-31l-45-79c118-108 260-162 427-162zM317-275c-3 86 56 121 139 121 117 0 179-51 239-111v-173c-122 6-219 17-297 53-49 22-79 51-81 110" id="aq"/><g id="k"><use transform="matrix(0.012222222222222223,0,0,0.012222222222222223,0,0)" xlink:href="#ap"/><use transform="matrix(0.012222222222222223,0,0,0.012222222222222223,18.48,0)" xlink:href="#aq"/><use transform="matrix(0.012222222222222223,0,0,0.012222222222222223,31.276666666666667,0)" xlink:href="#ai"/><use transform="matrix(0.012222222222222223,0,0,0.012222222222222223,45.17333333333333,0)" xlink:href="#aa"/><use transform="matrix(0.012222222222222223,0,0,0.012222222222222223,59.10666666666667,0)" xlink:href="#X"/><use transform="matrix(0.012222222222222223,0,0,0.012222222222222223,65.73111111111112,0)" xlink:href="#V"/><use transform="matrix(0.012222222222222223,0,0,0.012222222222222223,78.79666666666668,0)" xlink:href="#ao"/></g><path fill="#3d4752" d="M1417 0h-208c-47 1-77-28-90-61l-108-295H412L304-61c-11 30-46 61-89 61H6l568-1446h275zM481-546h461c-77-218-163-424-231-651-66 230-154 432-230 651" id="ar"/><path fill="#3d4752" d="M1187-985c0 329-222 471-561 476H424V0H155v-1446h471c337 4 561 134 561 461zm-269 0c0-176-112-253-292-253H424v519h202c184-1 292-85 292-266" id="as"/><path fill="#3d4752" d="M449 0H179v-1446h270V0" id="at"/><g id="l"><use transform="matrix(0.012222222222222223,0,0,0.012222222222222223,0,0)" xlink:href="#ar"/><use transform="matrix(0.012222222222222223,0,0,0.012222222222222223,17.355555555555558,0)" xlink:href="#as"/><use transform="matrix(0.012222222222222223,0,0,0.012222222222222223,32.63333333333334,0)" xlink:href="#at"/></g><path fill="#3d4752" d="M265 14c-92 0-152-57-152-150 0-92 60-151 152-151 91 0 151 60 151 151 0 92-59 150-151 150zm0-713c-92 0-152-57-152-150 0-92 60-151 152-151 91 0 151 60 151 151 0 92-59 150-151 150" id="au"/><g id="m"><use transform="matrix(0.012222222222222223,0,0,0.012222222222222223,0,0)" xlink:href="#ag"/><use transform="matrix(0.012222222222222223,0,0,0.012222222222222223,13.896666666666668,0)" xlink:href="#ao"/><use transform="matrix(0.012222222222222223,0,0,0.012222222222222223,24.57888888888889,0)" xlink:href="#ac"/><use transform="matrix(0.012222222222222223,0,0,0.012222222222222223,31.203333333333337,0)" xlink:href="#ai"/><use transform="matrix(0.012222222222222223,0,0,0.012222222222222223,45.1,0)" xlink:href="#ah"/><use transform="matrix(0.012222222222222223,0,0,0.012222222222222223,57.75,0)" xlink:href="#au"/></g><path fill="#3d4752" d="M225-206c179 0 234-119 234-302v-938h269v932C723-187 579 16 253 16 172 16 108 6 38-11l14-160c12-81 103-35 173-35" id="av"/><path fill="#3d4752" d="M519-204c146 0 246-70 241-211-6-175-195-185-333-232-183-63-339-153-333-400 5-199 120-319 272-380 126-51 311-44 437 5 72 27 133 64 184 112l-66 127c-15 40-64 51-105 25-64-41-136-87-246-85-132 3-224 54-224 182 0 167 202 176 334 227 173 67 333 144 333 381 0 227-120 364-289 433-138 56-353 39-478-16-80-35-154-80-210-138l78-129c23-34 74-43 115-13 73 54 157 112 290 112" id="aw"/><path fill="#3d4752" d="M1480-1018c71 176 71 414 0 590-106 261-323 444-679 444S225-168 120-428c-71-176-71-414 0-590 106-261 324-444 681-444 355 0 573 184 679 444zM801-214c307 0 456-198 456-509s-149-510-456-510c-308 0-459 198-459 510s152 509 459 509" id="ax"/><path fill="#3d4752" d="M377-1009c4 38 6 82 6 121V0H146v-1446c71 6 174-24 211 20 269 320 519 661 779 990-5-42-7-87-7-131v-879h237V0c-64-4-144 10-192-10-14-6-28-19-41-36" id="ay"/><path fill="#3d4752" d="M221-3C132-8 80-62 80-152c0-85 58-133 145-135 137-3 173 141 135 270-37 126-112 227-205 301-28-24-89-65-42-112 45-45 92-100 108-175" id="az"/><g id="n"><use transform="matrix(0.012222222222222223,0,0,0.012222222222222223,0,0)" xlink:href="#av"/><use transform="matrix(0.012222222222222223,0,0,0.012222222222222223,10.682222222222222,0)" xlink:href="#aw"/><use transform="matrix(0.012222222222222223,0,0,0.012222222222222223,23.796666666666667,0)" xlink:href="#ax"/><use transform="matrix(0.012222222222222223,0,0,0.012222222222222223,43.34,0)" xlink:href="#ay"/><use transform="matrix(0.012222222222222223,0,0,0.012222222222222223,61.82,0)" xlink:href="#az"/></g><path fill="#3d4752" d="M493-744L32-1446h268c38 0 48 9 63 32l329 531c7-19 15-35 25-51l301-475c15-25 34-37 57-37h258L867-755 1346 0h-269c-37 1-57-23-71-46L671-600c-5 15-12 29-19 42L331-46c-14 20-33 47-67 46H12" id="aA"/><path fill="#3d4752" d="M376-1057c5 39 7 82 7 123V0H146v-1446c85 3 182-6 258 6 17 7 27 20 36 37l432 803c23 42 41 90 60 136 19-47 38-95 61-138l428-801c15-33 41-43 90-43h203V0h-237c1-330-2-664 1-991 1-21 3-42 5-63l-437 820c-22 44-63 63-132 59-48-3-77-26-95-59" id="aB"/><path fill="#3d4752" d="M415-222h579V0H146v-1446h269v1224" id="aC"/><g id="o"><use transform="matrix(0.012222222222222223,0,0,0.012222222222222223,0,0)" xlink:href="#aA"/><use transform="matrix(0.012222222222222223,0,0,0.012222222222222223,16.59777777777778,0)" xlink:href="#aB"/><use transform="matrix(0.012222222222222223,0,0,0.012222222222222223,39.33111111111111,0)" xlink:href="#aC"/><use transform="matrix(0.012222222222222223,0,0,0.012222222222222223,51.96888888888889,0)" xlink:href="#az"/></g><path fill="#3d4752" d="M789-562V0H520v-562L-7-1446h237c50 0 72 27 90 60 102 188 210 370 305 564 12 25 22 51 31 76 20-56 40-105 69-157l263-483c15-28 44-60 89-60h238" id="aD"/><g id="p"><use transform="matrix(0.012222222222222223,0,0,0.012222222222222223,0,0)" xlink:href="#aD"/><use transform="matrix(0.012222222222222223,0,0,0.012222222222222223,13.774444444444445,0)" xlink:href="#ar"/><use transform="matrix(0.012222222222222223,0,0,0.012222222222222223,31.130000000000003,0)" xlink:href="#aB"/><use transform="matrix(0.012222222222222223,0,0,0.012222222222222223,53.86333333333334,0)" xlink:href="#aC"/></g><path fill="#3d4752" d="M604-806c-122 5-180 74-225 167V0H132v-1026c83 11 206-35 218 62l15 124c63-106 147-205 295-205 51 0 93 12 126 35l-32 185c-4 23-15 33-40 33-33 0-65-16-110-14" id="aE"/><g id="q"><use transform="matrix(0.012222222222222223,0,0,0.012222222222222223,0,0)" xlink:href="#Y"/><use transform="matrix(0.012222222222222223,0,0,0.012222222222222223,13.896666666666668,0)" xlink:href="#aE"/></g><path fill="#3d4752" d="M1165-1446v221H730V0H461v-1225H24v-221h1141" id="aF"/><g id="r"><use transform="matrix(0.012222222222222223,0,0,0.012222222222222223,0,0)" xlink:href="#ap"/><use transform="matrix(0.012222222222222223,0,0,0.012222222222222223,18.48,0)" xlink:href="#aF"/><use transform="matrix(0.012222222222222223,0,0,0.012222222222222223,33.02444444444445,0)" xlink:href="#aB"/><use transform="matrix(0.012222222222222223,0,0,0.012222222222222223,55.75777777777778,0)" xlink:href="#aC"/></g><path fill="#3d4752" d="M1058-1446v214H417v401h505v207H417v409h641V0H146v-1446h912" id="aG"/><g id="s"><use transform="matrix(0.012222222222222223,0,0,0.012222222222222223,0,0)" xlink:href="#aG"/><use transform="matrix(0.012222222222222223,0,0,0.012222222222222223,13.994444444444445,0)" xlink:href="#ai"/><use transform="matrix(0.012222222222222223,0,0,0.012222222222222223,27.89111111111112,0)" xlink:href="#ah"/><use transform="matrix(0.012222222222222223,0,0,0.012222222222222223,40.541111111111114,0)" xlink:href="#ac"/><use transform="matrix(0.012222222222222223,0,0,0.012222222222222223,47.16555555555556,0)" xlink:href="#ai"/><use transform="matrix(0.012222222222222223,0,0,0.012222222222222223,61.062222222222225,0)" xlink:href="#V"/><use transform="matrix(0.012222222222222223,0,0,0.012222222222222223,74.12777777777778,0)" xlink:href="#V"/><use transform="matrix(0.012222222222222223,0,0,0.012222222222222223,87.19333333333334,0)" xlink:href="#aE"/><use transform="matrix(0.012222222222222223,0,0,0.012222222222222223,97.1788888888889,0)" xlink:href="#V"/><use transform="matrix(0.012222222222222223,0,0,0.012222222222222223,110.24444444444447,0)" xlink:href="#aa"/></g><g id="t"><use transform="matrix(0.012222222222222223,0,0,0.012222222222222223,0,0)" xlink:href="#ad"/><use transform="matrix(0.012222222222222223,0,0,0.012222222222222223,9.46,0)" xlink:href="#Y"/></g><g id="u"><use transform="matrix(0.012222222222222223,0,0,0.012222222222222223,0,0)" xlink:href="#ao"/><use transform="matrix(0.012222222222222223,0,0,0.012222222222222223,10.682222222222222,0)" xlink:href="#ag"/><use transform="matrix(0.012222222222222223,0,0,0.012222222222222223,24.57888888888889,0)" xlink:href="#Z"/><use transform="matrix(0.012222222222222223,0,0,0.012222222222222223,38.40222222222222,0)" xlink:href="#Z"/><use transform="matrix(0.012222222222222223,0,0,0.012222222222222223,52.22555555555556,0)" xlink:href="#Y"/><use transform="matrix(0.012222222222222223,0,0,0.012222222222222223,66.12222222222223,0)" xlink:href="#aE"/><use transform="matrix(0.012222222222222223,0,0,0.012222222222222223,76.10777777777778,0)" xlink:href="#ad"/></g><g id="v"><use transform="matrix(0.012222222222222223,0,0,0.012222222222222223,0,0)" xlink:href="#an"/><use transform="matrix(0.012222222222222223,0,0,0.012222222222222223,11.66,0)" xlink:href="#ag"/><use transform="matrix(0.012222222222222223,0,0,0.012222222222222223,25.55666666666667,0)" xlink:href="#ao"/><use transform="matrix(0.012222222222222223,0,0,0.012222222222222223,36.238888888888894,0)" xlink:href="#ad"/><use transform="matrix(0.012222222222222223,0,0,0.012222222222222223,45.698888888888895,0)" xlink:href="#Y"/><use transform="matrix(0.012222222222222223,0,0,0.012222222222222223,59.595555555555556,0)" xlink:href="#aj"/></g><g id="w"><use transform="matrix(0.012222222222222223,0,0,0.012222222222222223,0,0)" xlink:href="#ao"/><use transform="matrix(0.012222222222222223,0,0,0.012222222222222223,10.682222222222222,0)" xlink:href="#ad"/><use transform="matrix(0.012222222222222223,0,0,0.012222222222222223,20.142222222222223,0)" xlink:href="#V"/><use transform="matrix(0.012222222222222223,0,0,0.012222222222222223,33.20777777777778,0)" xlink:href="#Z"/><use transform="matrix(0.012222222222222223,0,0,0.012222222222222223,47.031111111111116,0)" xlink:href="#ao"/></g><g id="x"><use transform="matrix(0.012222222222222223,0,0,0.012222222222222223,0,0)" xlink:href="#aa"/><use transform="matrix(0.012222222222222223,0,0,0.012222222222222223,13.933333333333334,0)" xlink:href="#V"/><use transform="matrix(0.012222222222222223,0,0,0.012222222222222223,26.595555555555556,0)" xlink:href="#W"/><use transform="matrix(0.012222222222222223,0,0,0.012222222222222223,39.233333333333334,0)" xlink:href="#V"/><use transform="matrix(0.012222222222222223,0,0,0.012222222222222223,52.29888888888889,0)" xlink:href="#X"/><use transform="matrix(0.012222222222222223,0,0,0.012222222222222223,58.92333333333334,0)" xlink:href="#Y"/><use transform="matrix(0.012222222222222223,0,0,0.012222222222222223,72.82,0)" xlink:href="#Z"/><use transform="matrix(0.012222222222222223,0,0,0.012222222222222223,86.64333333333333,0)" xlink:href="#aj"/><use transform="matrix(0.012222222222222223,0,0,0.012222222222222223,107.22555555555556,0)" xlink:href="#V"/><use transform="matrix(0.012222222222222223,0,0,0.012222222222222223,120.29111111111112,0)" xlink:href="#ai"/><use transform="matrix(0.012222222222222223,0,0,0.012222222222222223,134.1877777777778,0)" xlink:href="#ad"/></g><path fill="#3d4752" d="M496 282c-21 85-170 43-266 53L422-76 7-1026h216c39-1 60 21 70 46 80 195 164 386 238 586 7 18 10 37 14 56 74-221 164-427 244-642 9-24 36-46 68-46h198" id="aH"/><g id="y"><use transform="matrix(0.012222222222222223,0,0,0.012222222222222223,0,0)" xlink:href="#ar"/><use transform="matrix(0.012222222222222223,0,0,0.012222222222222223,17.355555555555558,0)" xlink:href="#af"/><use transform="matrix(0.012222222222222223,0,0,0.012222222222222223,31.28888888888889,0)" xlink:href="#ac"/><use transform="matrix(0.012222222222222223,0,0,0.012222222222222223,37.913333333333334,0)" xlink:href="#X"/><use transform="matrix(0.012222222222222223,0,0,0.012222222222222223,44.53777777777778,0)" xlink:href="#ac"/><use transform="matrix(0.012222222222222223,0,0,0.012222222222222223,51.16222222222221,0)" xlink:href="#ad"/><use transform="matrix(0.012222222222222223,0,0,0.012222222222222223,60.62222222222223,0)" xlink:href="#aH"/></g><g id="z"><use transform="matrix(0.012222222222222223,0,0,0.012222222222222223,0,0)" xlink:href="#ad"/><use transform="matrix(0.012222222222222223,0,0,0.012222222222222223,9.46,0)" xlink:href="#Y"/></g><g id="A"><use transform="matrix(0.012222222222222223,0,0,0.012222222222222223,0,0)" xlink:href="#ao"/><use transform="matrix(0.012222222222222223,0,0,0.012222222222222223,10.682222222222222,0)" xlink:href="#V"/><use transform="matrix(0.012222222222222223,0,0,0.012222222222222223,23.747777777777777,0)" xlink:href="#ai"/><use transform="matrix(0.012222222222222223,0,0,0.012222222222222223,37.644444444444446,0)" xlink:href="#aa"/></g><path fill="#3d4752" d="M601-1285c-158 0-198 102-186 268h267v176H423V0H176v-840c-61-14-153-3-153-76v-101h153c-17-292 113-454 383-454 47 0 91 6 132 19l-5 124c-1 41-44 43-85 43" id="aI"/><g id="B"><use transform="matrix(0.012222222222222223,0,0,0.012222222222222223,0,0)" xlink:href="#aI"/><use transform="matrix(0.012222222222222223,0,0,0.012222222222222223,8.567777777777778,0)" xlink:href="#Y"/><use transform="matrix(0.012222222222222223,0,0,0.012222222222222223,22.464444444444446,0)" xlink:href="#aE"/><use transform="matrix(0.012222222222222223,0,0,0.012222222222222223,32.45,0)" xlink:href="#aj"/><use transform="matrix(0.012222222222222223,0,0,0.012222222222222223,53.03222222222224,0)" xlink:href="#ao"/></g><g id="C"><use transform="matrix(0.012222222222222223,0,0,0.012222222222222223,0,0)" xlink:href="#ab"/><use transform="matrix(0.012222222222222223,0,0,0.012222222222222223,19.33555555555556,0)" xlink:href="#ac"/><use transform="matrix(0.012222222222222223,0,0,0.012222222222222223,25.96,0)" xlink:href="#ad"/><use transform="matrix(0.012222222222222223,0,0,0.012222222222222223,35.42,0)" xlink:href="#ae"/></g><g id="D"><use transform="matrix(0.012222222222222223,0,0,0.012222222222222223,0,0)" xlink:href="#aI"/><use transform="matrix(0.012222222222222223,0,0,0.012222222222222223,8.567777777777778,0)" xlink:href="#ac"/><use transform="matrix(0.012222222222222223,0,0,0.012222222222222223,15.192222222222224,0)" xlink:href="#X"/><use transform="matrix(0.012222222222222223,0,0,0.012222222222222223,21.816666666666666,0)" xlink:href="#V"/></g><g id="E"><use transform="matrix(0.012222222222222223,0,0,0.012222222222222223,0,0)" xlink:href="#ac"/><use transform="matrix(0.012222222222222223,0,0,0.012222222222222223,6.624444444444444,0)" xlink:href="#ad"/></g><g id="F"><use transform="matrix(0.012222222222222223,0,0,0.012222222222222223,0,0)" xlink:href="#aw"/><use transform="matrix(0.012222222222222223,0,0,0.012222222222222223,13.114444444444445,0)" xlink:href="#ad"/><use transform="matrix(0.012222222222222223,0,0,0.012222222222222223,22.574444444444445,0)" xlink:href="#V"/><use transform="matrix(0.012222222222222223,0,0,0.012222222222222223,35.64,0)" xlink:href="#Z"/><use transform="matrix(0.012222222222222223,0,0,0.012222222222222223,49.46333333333334,0)" xlink:href="#ao"/></g><g id="G"><use transform="matrix(0.012222222222222223,0,0,0.012222222222222223,0,0)" xlink:href="#aq"/><use transform="matrix(0.012222222222222223,0,0,0.012222222222222223,12.796666666666667,0)" xlink:href="#an"/><use transform="matrix(0.012222222222222223,0,0,0.012222222222222223,24.456666666666667,0)" xlink:href="#an"/><use transform="matrix(0.012222222222222223,0,0,0.012222222222222223,36.11666666666667,0)" xlink:href="#V"/><use transform="matrix(0.012222222222222223,0,0,0.012222222222222223,49.18222222222222,0)" xlink:href="#Z"/><use transform="matrix(0.012222222222222223,0,0,0.012222222222222223,63.00555555555556,0)" xlink:href="#ad"/></g><g id="H"><use transform="matrix(0.012222222222222223,0,0,0.012222222222222223,0,0)" xlink:href="#ad"/><use transform="matrix(0.012222222222222223,0,0,0.012222222222222223,9.46,0)" xlink:href="#V"/><use transform="matrix(0.012222222222222223,0,0,0.012222222222222223,22.525555555555556,0)" xlink:href="#aj"/><use transform="matrix(0.012222222222222223,0,0,0.012222222222222223,43.107777777777784,0)" xlink:href="#Z"/><use transform="matrix(0.012222222222222223,0,0,0.012222222222222223,56.93111111111112,0)" xlink:href="#X"/><use transform="matrix(0.012222222222222223,0,0,0.012222222222222223,63.55555555555556,0)" xlink:href="#aq"/><use transform="matrix(0.012222222222222223,0,0,0.012222222222222223,76.35222222222222,0)" xlink:href="#ad"/><use transform="matrix(0.012222222222222223,0,0,0.012222222222222223,85.81222222222223,0)" xlink:href="#V"/><use transform="matrix(0.012222222222222223,0,0,0.012222222222222223,98.8777777777778,0)" xlink:href="#ao"/></g><g id="I"><use transform="matrix(0.012222222222222223,0,0,0.012222222222222223,0,0)" xlink:href="#aq"/><use transform="matrix(0.012222222222222223,0,0,0.012222222222222223,12.796666666666667,0)" xlink:href="#ao"/></g><path fill="#3d4752" d="M386 16c-177 4-262-127-232-318 28-177 44-361 66-539-60-5-150 24-133-59 6-29 6-53 10-91l156-27 82-280c13-65 118-35 188-42l-40 323h248l-21 176H461c-23 192-53 382-69 576-4 48 24 82 71 82 45 0 65-25 98-34 17 0 23 9 29 22l53 120c-63 53-151 89-257 91" id="aJ"/><path fill="#3d4752" d="M446 15C188 9 49-150 49-411c0-254 109-424 257-538 96-73 283-123 430-68 99 37 182 106 182 229 0 200-145 257-318 306-81 23-185 38-310 51-9 200 102 285 283 247 77-15 119-64 178-96 27-15 65-6 81 14l63 76C781-79 666 20 446 15zm236-736c38-78-13-153-101-147-167 11-231 138-271 279 134-19 231-36 316-81 28-15 47-33 56-51" id="aK"/><path fill="#3d4752" d="M353-555l-238-471h224c34 0 44 8 55 31l141 306c62-108 139-201 209-302 13-19 27-35 55-35h224L662-554 926 0H701c-34 1-51-22-62-45L482-405c-6 14-15 30-23 42L231-45c-16 19-34 45-68 45H-54" id="aL"/><path fill="#3d4752" d="M151 7C131 56 75 97 15 97H-87l703-1468c23-48 67-84 132-84h100" id="aM"/><path fill="#3d4752" d="M691-653c9-88 14-197-79-187-159 17-205 168-254 304L294 0H52l125-1027c96 4 222-28 207 91-4 33-3 59-5 102 76-113 163-208 319-208 141 0 203 103 213 245 81-138 170-239 350-245 196-6 260 176 235 389L1419 0h-244c30-263 82-481 82-727 0-73-18-113-85-113-156 0-202 162-251 295L857 0H614" id="aN"/><path fill="#3d4752" d="M656-11C530 44 368 5 302-78l-51 413H11l166-1362c91 6 219-30 206 83-5 46-3 83-6 144 82-120 191-242 365-242 211 0 283 162 283 382 0 263-104 452-249 577-37 32-78 54-120 72zm102-459c35-142 44-378-112-378-126 0-182 121-236 218-24 43-52 89-58 142l-30 249c58 69 202 91 284 25 72-58 125-150 152-256" id="aO"/><path fill="#3d4752" d="M65 0l180-1486h243L308 0H65" id="aP"/><path fill="#3d4752" d="M315 15C117 15 38-142 38-351c0-291 147-469 326-593 143-99 424-130 618-51L858 0H728c-115 8-73-125-73-214C577-98 483 15 315 15zm-1-591c-47 129-59 389 98 389 124 0 172-123 220-222 22-44 45-91 52-144l39-310c-224-19-348 119-409 287" id="aQ"/><g id="J"><use transform="matrix(0.012222222222222223,0,0,0.012222222222222223,0,0)" xlink:href="#aJ"/><use transform="matrix(0.012222222222222223,0,0,0.012222222222222223,8.665555555555557,0)" xlink:href="#aK"/><use transform="matrix(0.012222222222222223,0,0,0.012222222222222223,19.543333333333337,0)" xlink:href="#aL"/><use transform="matrix(0.012222222222222223,0,0,0.012222222222222223,31.838888888888892,0)" xlink:href="#aJ"/><use transform="matrix(0.012222222222222223,0,0,0.012222222222222223,40.504444444444445,0)" xlink:href="#aM"/><use transform="matrix(0.012222222222222223,0,0,0.012222222222222223,49.35333333333334,0)" xlink:href="#aJ"/><use transform="matrix(0.012222222222222223,0,0,0.012222222222222223,58.018888888888895,0)" xlink:href="#aK"/><use transform="matrix(0.012222222222222223,0,0,0.012222222222222223,69.58111111111111,0)" xlink:href="#aN"/><use transform="matrix(0.012222222222222223,0,0,0.012222222222222223,88.90444444444445,0)" xlink:href="#aO"/><use transform="matrix(0.012222222222222223,0,0,0.012222222222222223,101.86,0)" xlink:href="#aP"/><use transform="matrix(0.012222222222222223,0,0,0.012222222222222223,107.95888888888892,0)" xlink:href="#aQ"/><use transform="matrix(0.012222222222222223,0,0,0.012222222222222223,120.60888888888891,0)" xlink:href="#aJ"/><use transform="matrix(0.012222222222222223,0,0,0.012222222222222223,129.27444444444447,0)" xlink:href="#aK"/></g><path fill="#3d4752" d="M382-1486v851c54 1 89-1 115-33l255-315c22-25 41-43 86-43h226C946-887 832-742 710-606c-11 12-25 21-39 30 29 21 48 49 69 78L1082 0H859c-44-1-65-15-85-44L513-433c-20-29-30-36-75-37h-56V0H135v-1486h247" id="aR"/><g id="K"><use transform="matrix(0.012222222222222223,0,0,0.012222222222222223,0,0)" xlink:href="#Z"/><use transform="matrix(0.012222222222222223,0,0,0.012222222222222223,13.823333333333334,0)" xlink:href="#aR"/><use transform="matrix(0.012222222222222223,0,0,0.012222222222222223,27.304444444444446,0)" xlink:href="#ah"/></g></defs></g></svg>