<svg xmlns="http://www.w3.org/2000/svg" xmlns:xlink="http://www.w3.org/1999/xlink" xmlns:lucid="lucid" width="1020" height="330.42"><g transform="translate(0 0)" lucid:page-tab-id="0_0"><g filter="url(#a)"><path d="M20 40a20 20 0 0 1 20-20h260a20 20 0 0 1 20 20v90.42a20 20 0 0 1-20 20H40a20 20 0 0 1-20-20z" stroke="#747474" stroke-width="3" fill="#e3fae3"/><path d="M40 112.42h278.5v3H40z" fill="#e5e5e5"/><use xlink:href="#b" transform="matrix(1,0,0,1,40,50.578) translate(0 19.918)"/><use xlink:href="#c" transform="matrix(1,0,0,1,40,50.578) translate(83.53999999999999 19.918)"/><use xlink:href="#d" transform="matrix(1,0,0,1,40,50.578) translate(122.74 19.918)"/><use xlink:href="#e" transform="matrix(1,0,0,1,40,50.578) translate(0 48.122)"/><use xlink:href="#f" transform="matrix(1,0,0,1,40,50.578) translate(173.35999999999999 48.122)"/><use xlink:href="#g" transform="matrix(1,0,0,1,40,50.578) translate(199.17999999999998 48.122)"/></g><g filter="url(#a)"><path d="M700 40a20 20 0 0 1 20-20h260a20 20 0 0 1 20 20v90.42a20 20 0 0 1-20 20H720a20 20 0 0 1-20-20z" stroke="#747474" stroke-width="3" fill="#e3fae3"/><path d="M720 112.42h278.5v3H720z" fill="#e5e5e5"/><use xlink:href="#h" transform="matrix(1,0,0,1,720,50.578) translate(0 19.918)"/><use xlink:href="#i" transform="matrix(1,0,0,1,720,50.578) translate(41.980000000000004 19.918)"/><use xlink:href="#j" transform="matrix(1,0,0,1,720,50.578) translate(86.5 19.918)"/><use xlink:href="#k" transform="matrix(1,0,0,1,720,50.578) translate(0 48.122)"/></g><g filter="url(#a)"><path d="M360 40a20 20 0 0 1 20-20h260a20 20 0 0 1 20 20v90.42a20 20 0 0 1-20 20H380a20 20 0 0 1-20-20z" stroke="#747474" stroke-width="3" fill="#e3fae3"/><path d="M380 112.42h278.5v3H380z" fill="#e5e5e5"/><use xlink:href="#l" transform="matrix(1,0,0,1,380,50.578) translate(0 19.918)"/><use xlink:href="#m" transform="matrix(1,0,0,1,380,50.578) translate(108.77999999999999 19.918)"/><use xlink:href="#n" transform="matrix(1,0,0,1,380,50.578) translate(156.45999999999998 19.918)"/><use xlink:href="#o" transform="matrix(1,0,0,1,380,50.578) translate(0 48.122)"/><use xlink:href="#p" transform="matrix(1,0,0,1,380,50.578) translate(23.68 48.122)"/></g><g filter="url(#q)"><path d="M540 200a20 20 0 0 1 20-20h280a20 20 0 0 1 20 20v90.42a20 20 0 0 1-20 20H560a20 20 0 0 1-20-20z" stroke="#747474" stroke-width="3" fill="#e3fae3"/><path d="M560 272.42h298.5v3H560z" fill="#e5e5e5"/><use xlink:href="#r" transform="matrix(1,0,0,1,560,210.578) translate(0 19.918)"/><use xlink:href="#s" transform="matrix(1,0,0,1,560,210.578) translate(57.8 19.918)"/><use xlink:href="#t" transform="matrix(1,0,0,1,560,210.578) translate(135.64 19.918)"/><use xlink:href="#u" transform="matrix(1,0,0,1,560,210.578) translate(237.15999999999997 19.918)"/><use xlink:href="#o" transform="matrix(1,0,0,1,560,210.578) translate(0 48.122)"/><use xlink:href="#v" transform="matrix(1,0,0,1,560,210.578) translate(23.68 48.122)"/><use xlink:href="#w" transform="matrix(1,0,0,1,560,210.578) translate(162.18 48.122)"/></g><g filter="url(#x)"><path d="M160 200a20 20 0 0 1 20-20h280a20 20 0 0 1 20 20v90.42a20 20 0 0 1-20 20H180a20 20 0 0 1-20-20z" stroke="#747474" stroke-width="3" fill="#e3fae3"/><path d="M180 272.42h298.5v3H180z" fill="#e5e5e5"/><use xlink:href="#y" transform="matrix(1,0,0,1,180,210.578) translate(0 19.918)"/><use xlink:href="#z" transform="matrix(1,0,0,1,180,210.578) translate(102.74 19.918)"/><use xlink:href="#A" transform="matrix(1,0,0,1,180,210.578) translate(128.12 19.918)"/><use xlink:href="#B" transform="matrix(1,0,0,1,180,210.578) translate(208.98000000000002 19.918)"/><use xlink:href="#C" transform="matrix(1,0,0,1,180,210.578) translate(0 48.122)"/><use xlink:href="#D" transform="matrix(1,0,0,1,180,210.578) translate(55.52 48.122)"/></g><defs><path d="M670 0H538v-311H211V0H80v-708h131v292h327v-292h132V0" id="E"/><path d="M206 14C110 14 37-46 38-146c2-168 152-185 331-181 25-144-173-124-258-70l-42-83c50-30 124-54 200-54 156 0 223 66 225 217 2 121-6 199 9 317H388c-5-27-8-47-9-59h-3c-39 49-83 73-170 73zm36-98c87-3 138-59 128-159-104-1-200-4-202 88-1 45 29 73 74 71" id="F"/><path d="M330-430c-79 0-127 62-127 141V0H78c-4-180 9-350-9-520h120c5 20 4 44 10 60 33-43 94-75 172-74 122 1 190 74 190 190V0H436v-317c-1-69-32-113-106-113" id="G"/><path d="M44-257c2-159 83-277 241-277 59 0 108 17 147 52v-226h125c4 237-9 482 8 708H449c-6-26-5-51-10-65-38 51-88 79-175 79C113 16 42-104 44-257zM298-85c79 1 134-62 134-142v-152c-34-36-77-54-128-54-90 1-130 79-130 176S212-88 298-85" id="H"/><path d="M203-708V0H78v-708h125" id="I"/><path d="M295-534c175 0 256 137 237 320H170c10 80 57 129 145 129 69-1 102-19 149-47l54 80c-56 41-119 66-211 66C138 14 46-91 44-260c-2-161 90-274 251-274zm117 226c-3-74-41-132-118-132-79 0-120 59-125 132h243" id="J"/><path d="M39-378c0-175 271-194 382-101l-50 79c-41-25-82-38-123-38-83 0-118 83-42 107 98 31 223 49 223 175C429 33 141 56 23-45l54-78c39 24 75 33 132 40 84 10 127-92 48-118-99-33-218-48-218-177" id="K"/><g id="b"><use transform="matrix(0.02,0,0,0.02,0,0)" xlink:href="#E"/><use transform="matrix(0.02,0,0,0.02,14.98,0)" xlink:href="#F"/><use transform="matrix(0.02,0,0,0.02,26.36,0)" xlink:href="#G"/><use transform="matrix(0.02,0,0,0.02,39.019999999999996,0)" xlink:href="#H"/><use transform="matrix(0.02,0,0,0.02,51.72,0)" xlink:href="#I"/><use transform="matrix(0.02,0,0,0.02,57.36,0)" xlink:href="#J"/><use transform="matrix(0.02,0,0,0.02,68.94,0)" xlink:href="#K"/></g><path d="M479-153H191L134 0H-3l272-708h135L675 0H533zM226-253h219L336-574" id="L"/><path d="M335-708c157 0 270 77 267 237-3 159-110 238-267 242H211V0H80v-708h255zm134 238c0-136-122-140-259-133v268h113c83 0 146-47 146-135" id="M"/><path d="M259-99h83V0H48v-99h83v-513H48v-96h294v96h-83v513" id="N"/><g id="c"><use transform="matrix(0.02,0,0,0.02,0,0)" xlink:href="#L"/><use transform="matrix(0.02,0,0,0.02,13.46,0)" xlink:href="#M"/><use transform="matrix(0.02,0,0,0.02,26.020000000000007,0)" xlink:href="#N"/></g><path d="M269 14C141 14 72-75 72-200v-320h126v301c0 78 28 134 105 134 81 0 128-71 128-153v-282h125c4 175-9 357 9 520H445c-6-24-5-47-10-61-37 50-92 75-166 75" id="O"/><path d="M203 0H78v-520h125V0zm-62-611c-51 0-77-26-77-71 0-48 26-72 77-72s77 26 77 72c0 45-28 71-77 71" id="P"/><path d="M257 257C121 257 16 215 16 96 16 41 47-4 108-41c-25-16-43-33-43-70 0-44 33-71 72-82-59-31-88-82-88-153 0-157 169-219 323-174h189v99l-105-17c24 21 38 60 38 105-1 116-95 170-219 170-48 0-90 5-96 40 8 33 46 35 96 37 92 3 160 16 204 41s66 62 66 112c0 141-130 190-288 190zm-94-605c1 63 40 98 108 98 72 0 108-31 108-94-1-64-39-99-108-99-61 0-108 37-108 95zm97 512c85-1 161-15 161-84 0-25-17-43-51-54S276 9 192 8c-37 21-55 48-55 81 0 50 41 75 123 75" id="Q"/><g id="d"><use transform="matrix(0.02,0,0,0.02,0,0)" xlink:href="#O"/><use transform="matrix(0.02,0,0,0.02,12.379999999999997,0)" xlink:href="#K"/><use transform="matrix(0.02,0,0,0.02,21.6,0)" xlink:href="#P"/><use transform="matrix(0.02,0,0,0.02,27.240000000000002,0)" xlink:href="#G"/><use transform="matrix(0.02,0,0,0.02,39.900000000000006,0)" xlink:href="#Q"/></g><path d="M354-211C351-72 278 17 136 19 85 19 40 7 3-17l48-97c17 11 48 20 76 20 64 0 96-39 96-116v-498h131v497" id="R"/><path d="M540-200C550 52 170 69 26-64l63-83c71 67 317 99 317-48 0-96-79-102-162-127-111-33-193-77-195-204-4-228 334-244 479-129l-59 85c-50-30-95-49-167-50-67 0-123 23-123 86 0 82 64 84 147 110 123 38 208 79 214 224" id="S"/><path d="M406 19C174 19 44-123 44-354s130-373 362-373 363 142 363 373S638 19 406 19zm0-113c155 0 229-105 229-260s-74-260-229-260c-154 0-228 106-228 260S252-94 406-94" id="T"/><path d="M80-708h149c118 176 232 354 352 528l-3-528h121V0H550C432-176 318-355 198-529l4 529H80v-708" id="U"/><path d="M440-792L212 88H103l228-880h109" id="V"/><path d="M646 0H493L320-282 149 0H-4l247-373L23-708h151l149 251 149-251h148L400-373" id="W"/><path d="M858 0H730c0-185 5-375 1-557L513 0h-98c-73-185-142-374-217-557l4 557H80v-708h192c65 176 127 355 195 528l198-528h193V0" id="X"/><path d="M211-109h306V0H80v-708h131v599" id="Y"/><path d="M362-301V0H231v-303L-18-708h150c57 100 111 203 171 301l167-301h145" id="Z"/><g id="e"><use transform="matrix(0.02,0,0,0.02,0,0)" xlink:href="#R"/><use transform="matrix(0.02,0,0,0.02,8.52,0)" xlink:href="#S"/><use transform="matrix(0.02,0,0,0.02,20.02,0)" xlink:href="#T"/><use transform="matrix(0.02,0,0,0.02,36.260000000000005,0)" xlink:href="#U"/><use transform="matrix(0.02,0,0,0.02,51.84,0)" xlink:href="#V"/><use transform="matrix(0.02,0,0,0.02,62.74,0)" xlink:href="#W"/><use transform="matrix(0.02,0,0,0.02,75.6,0)" xlink:href="#X"/><use transform="matrix(0.02,0,0,0.02,94.36,0)" xlink:href="#Y"/><use transform="matrix(0.02,0,0,0.02,103.98,0)" xlink:href="#V"/><use transform="matrix(0.02,0,0,0.02,114.48,0)" xlink:href="#Z"/><use transform="matrix(0.02,0,0,0.02,125.34,0)" xlink:href="#L"/><use transform="matrix(0.02,0,0,0.02,138.8,0)" xlink:href="#X"/><use transform="matrix(0.02,0,0,0.02,157.56,0)" xlink:href="#Y"/></g><path d="M314-534c172 0 271 101 271 272C585-92 485 14 314 14 144 14 44-93 44-262c0-171 98-272 270-272zm0 100c-102 0-140 71-140 172 0 102 39 177 141 177s142-75 142-177-40-172-143-172" id="aa"/><path d="M380-422c-108-21-177 50-177 149V0H78c-4-180 9-350-9-520h120c6 28 5 55 10 72 34-65 100-96 186-82" id="ab"/><g id="f"><use transform="matrix(0.02,0,0,0.02,0,0)" xlink:href="#aa"/><use transform="matrix(0.02,0,0,0.02,12.6,0)" xlink:href="#ab"/></g><path d="M561-598H348V0H217v-598H4v-110h557v110" id="ac"/><g id="g"><use transform="matrix(0.02,0,0,0.02,0,0)" xlink:href="#E"/><use transform="matrix(0.02,0,0,0.02,14.98,0)" xlink:href="#ac"/><use transform="matrix(0.02,0,0,0.02,26.28,0)" xlink:href="#X"/><use transform="matrix(0.02,0,0,0.02,45.04000000000001,0)" xlink:href="#Y"/></g><filter id="a" filterUnits="objectBoundingBox" x="-.02" y="-.02" width="1.03" height="1.08"><feOffset result="offOut" in="SourceAlpha" dy="3"/><feGaussianBlur result="blurOut" in="offOut" stdDeviation="2.5"/><feColorMatrix result="colorOut" in="blurOut" values="0 0 0 0 0.018823529411764708 0 0 0 0 0.018823529411764708 0 0 0 0 0.018823529411764708 0 0 0 0.2 0"/><feBlend in="SourceGraphic" in2="colorOut"/></filter><path d="M582-154h-87V0H370v-154H19v-97l227-457h138L165-262h204v-182h126v182h87v108" id="ad"/><path d="M304 19C107 19 36-138 36-354s71-373 268-373c198 0 270 156 270 373S502 19 304 19zm109-173c34-72 34-326-1-399-40-82-174-82-214 0-35 73-36 327-1 399 38 80 178 80 216 0" id="ae"/><path d="M505-237H359v150H251v-150H105v-100h146v-150h108v150h146v100" id="af"/><g id="h"><use transform="matrix(0.02,0,0,0.02,0,0)" xlink:href="#ad"/><use transform="matrix(0.02,0,0,0.02,12.200000000000001,0)" xlink:href="#ae"/><use transform="matrix(0.02,0,0,0.02,24.400000000000002,0)" xlink:href="#af"/></g><path d="M660 0H524c-41-127-77-259-120-384L289 0H154L9-520h132c30 126 55 257 88 381l114-381h130c40 126 75 257 117 381l88-381h127" id="ag"/><g id="i"><use transform="matrix(0.02,0,0,0.02,0,0)" xlink:href="#ag"/><use transform="matrix(0.02,0,0,0.02,16.28,0)" xlink:href="#J"/><use transform="matrix(0.02,0,0,0.02,27.86,0)" xlink:href="#I"/><use transform="matrix(0.02,0,0,0.02,33.5,0)" xlink:href="#I"/></g><path d="M44-261c0-170 96-273 266-273 65 0 123 19 174 56l-47 87c-40-26-82-39-126-39-98-1-141 69-141 169 0 97 44 171 139 170 41 0 84-13 129-40l45 89C436-9 374 14 299 14 127 14 44-98 44-261" id="ah"/><path d="M323-431c-76 0-120 65-120 142V0H78c-4-180 9-350-9-520h120c5 21 4 44 10 59 33-42 89-73 163-73 79 0 131 31 166 86 39-57 97-86 173-86 125 1 193 81 193 202V0H769v-314c-1-70-28-117-100-117-78 0-121 72-120 149V0H423v-324c-1-62-33-107-100-107" id="ai"/><path d="M266 14c-103 1-166-60-165-163v-271H15v-80l85-15v-123l126-44v167h129v95H226v259c-6 69 55 85 113 68l18 92c-25 10-56 15-91 15" id="aj"/><g id="j"><use transform="matrix(0.02,0,0,0.02,0,0)" xlink:href="#H"/><use transform="matrix(0.02,0,0,0.02,12.700000000000001,0)" xlink:href="#aa"/><use transform="matrix(0.02,0,0,0.02,25.3,0)" xlink:href="#ah"/><use transform="matrix(0.02,0,0,0.02,35.34,0)" xlink:href="#O"/><use transform="matrix(0.02,0,0,0.02,48.02,0)" xlink:href="#ai"/><use transform="matrix(0.02,0,0,0.02,67.34,0)" xlink:href="#J"/><use transform="matrix(0.02,0,0,0.02,78.92,0)" xlink:href="#G"/><use transform="matrix(0.02,0,0,0.02,91.48,0)" xlink:href="#aj"/><use transform="matrix(0.02,0,0,0.02,98.88,0)" xlink:href="#J"/><use transform="matrix(0.02,0,0,0.02,110.46000000000001,0)" xlink:href="#H"/></g><path d="M367-534c156 0 224 117 224 273 0 157-81 275-237 275-60 0-110-17-151-50v280H78v-645c0-25-3-65-9-119h120c6 27 5 51 10 62 40-51 96-76 168-76zM324-85c97 0 138-75 138-176 0-99-35-171-124-173-77-2-135 64-135 141v166c37 24 66 41 121 42" id="ak"/><g id="k"><use transform="matrix(0.02,0,0,0.02,0,0)" xlink:href="#K"/><use transform="matrix(0.02,0,0,0.02,9.22,0)" xlink:href="#aj"/><use transform="matrix(0.02,0,0,0.02,16.62,0)" xlink:href="#J"/><use transform="matrix(0.02,0,0,0.02,28.2,0)" xlink:href="#ak"/><use transform="matrix(0.02,0,0,0.02,40.92,0)" xlink:href="#K"/></g><path d="M321-708c238 0 378 113 376 353C695-123 558 0 326 0H80v-708h241zm241 353c0-168-80-245-246-246H210v493h103c166-1 249-79 249-247" id="al"/><path d="M329 0H192L-2-520h136l127 393h3l124-393h131" id="am"/><g id="l"><use transform="matrix(0.02,0,0,0.02,0,0)" xlink:href="#al"/><use transform="matrix(0.02,0,0,0.02,14.8,0)" xlink:href="#J"/><use transform="matrix(0.02,0,0,0.02,26.3,0)" xlink:href="#am"/><use transform="matrix(0.02,0,0,0.02,36.58,0)" xlink:href="#J"/><use transform="matrix(0.02,0,0,0.02,48.160000000000004,0)" xlink:href="#I"/><use transform="matrix(0.02,0,0,0.02,53.800000000000004,0)" xlink:href="#aa"/><use transform="matrix(0.02,0,0,0.02,66.39999999999999,0)" xlink:href="#ak"/><use transform="matrix(0.02,0,0,0.02,79.11999999999999,0)" xlink:href="#J"/><use transform="matrix(0.02,0,0,0.02,90.69999999999999,0)" xlink:href="#H"/></g><path d="M330-430c-78 0-127 63-127 141V0H78v-708h125c1 81-3 167 2 245 38-47 94-71 167-71 121 0 189 79 189 190V0H436v-317c-1-69-32-113-106-113" id="an"/><g id="m"><use transform="matrix(0.02,0,0,0.02,0,0)" xlink:href="#ag"/><use transform="matrix(0.02,0,0,0.02,16.28,0)" xlink:href="#P"/><use transform="matrix(0.02,0,0,0.02,21.92,0)" xlink:href="#aj"/><use transform="matrix(0.02,0,0,0.02,29.62,0)" xlink:href="#an"/></g><path d="M366-534c151 0 227 122 225 273-2 163-86 275-250 275-55 0-106-18-152-54l-8 40H78v-708h125v245h3c35-47 89-71 160-71zM324-85c97 0 138-75 138-176 0-98-35-170-123-173-77-2-136 64-136 141v166c37 24 66 41 121 42" id="ao"/><g id="n"><use transform="matrix(0.02,0,0,0.02,0,0)" xlink:href="#H"/><use transform="matrix(0.02,0,0,0.02,12.700000000000001,0)" xlink:href="#J"/><use transform="matrix(0.02,0,0,0.02,24.28,0)" xlink:href="#ao"/><use transform="matrix(0.02,0,0,0.02,37,0)" xlink:href="#O"/><use transform="matrix(0.02,0,0,0.02,49.68,0)" xlink:href="#Q"/><use transform="matrix(0.02,0,0,0.02,61.58,0)" xlink:href="#Q"/><use transform="matrix(0.02,0,0,0.02,73.2,0)" xlink:href="#P"/><use transform="matrix(0.02,0,0,0.02,78.84,0)" xlink:href="#G"/><use transform="matrix(0.02,0,0,0.02,91.5,0)" xlink:href="#Q"/></g><g id="o"><use transform="matrix(0.02,0,0,0.02,0,0)" xlink:href="#P"/><use transform="matrix(0.02,0,0,0.02,5.64,0)" xlink:href="#G"/></g><g id="p"><use transform="matrix(0.02,0,0,0.02,0,0)" xlink:href="#ai"/><use transform="matrix(0.02,0,0,0.02,19.32,0)" xlink:href="#P"/><use transform="matrix(0.02,0,0,0.02,24.96,0)" xlink:href="#G"/><use transform="matrix(0.02,0,0,0.02,37.620000000000005,0)" xlink:href="#H"/></g><g id="r"><use transform="matrix(0.02,0,0,0.02,0,0)" xlink:href="#S"/><use transform="matrix(0.02,0,0,0.02,11.5,0)" xlink:href="#aj"/><use transform="matrix(0.02,0,0,0.02,18.9,0)" xlink:href="#J"/><use transform="matrix(0.02,0,0,0.02,30.479999999999997,0)" xlink:href="#ak"/><use transform="matrix(0.02,0,0,0.02,43.19999999999999,0)" xlink:href="#K"/></g><g id="s"><use transform="matrix(0.02,0,0,0.02,0,0)" xlink:href="#F"/><use transform="matrix(0.02,0,0,0.02,11.38,0)" xlink:href="#ah"/><use transform="matrix(0.02,0,0,0.02,21.36,0)" xlink:href="#ah"/><use transform="matrix(0.02,0,0,0.02,31.340000000000007,0)" xlink:href="#J"/><use transform="matrix(0.02,0,0,0.02,42.92,0)" xlink:href="#ak"/><use transform="matrix(0.02,0,0,0.02,55.54,0)" xlink:href="#aj"/><use transform="matrix(0.02,0,0,0.02,63.24,0)" xlink:href="#K"/></g><g id="t"><use transform="matrix(0.02,0,0,0.02,0,0)" xlink:href="#aj"/><use transform="matrix(0.02,0,0,0.02,7.4,0)" xlink:href="#J"/><use transform="matrix(0.02,0,0,0.02,18.98,0)" xlink:href="#ai"/><use transform="matrix(0.02,0,0,0.02,38.3,0)" xlink:href="#ak"/><use transform="matrix(0.02,0,0,0.02,51.01999999999999,0)" xlink:href="#I"/><use transform="matrix(0.02,0,0,0.02,56.65999999999999,0)" xlink:href="#F"/><use transform="matrix(0.02,0,0,0.02,67.94,0)" xlink:href="#aj"/><use transform="matrix(0.02,0,0,0.02,75.34,0)" xlink:href="#J"/><use transform="matrix(0.02,0,0,0.02,86.92,0)" xlink:href="#K"/></g><g id="u"><use transform="matrix(0.02,0,0,0.02,0,0)" xlink:href="#F"/><use transform="matrix(0.02,0,0,0.02,11.38,0)" xlink:href="#K"/></g><path d="M219 14C115 14 67-53 84-161l41-263H41l13-77 86-14 18-122 128-43-26 165h126l-14 91H245c-14 98-32 192-44 293-6 48 62 53 103 40l6 92c-26 9-56 13-91 13" id="ap"/><path d="M339-532c114-3 185 47 185 143 0 66-32 113-98 141s-154 45-265 49c3 76 44 114 121 114 63-1 94-15 138-40l43 78C399-7 357 13 261 14 125 16 40-67 42-201c3-193 105-325 297-331zm63 144c0-41-24-54-71-54-95 1-144 70-162 153 91-7 157-9 207-44 18-12 26-32 26-55" id="aq"/><path d="M349-266L504 0H364l-99-194L103 0H-39l240-277L66-518h133l89 173 143-173h132" id="ar"/><path d="M527-791L167 87H62l361-878h104" id="as"/><path d="M737-532c107-3 167 82 150 191L832 0H712c17-120 44-232 54-357 8-96-96-88-144-38-83 88-108 245-128 395H374c18-119 43-234 54-357 8-97-98-88-146-36-82 89-105 245-127 393H35c24-176 60-331 74-518h112c1 28-1 58-8 90h2c30-52 105-104 183-104 83 0 128 48 145 112 36-62 105-110 194-112" id="at"/><path d="M400-532c123 0 182 84 182 205 0 188-97 341-279 341-57 0-105-12-144-37l-42 267H-3L99-401c5-35 9-74 10-117h114c-1 41-5 70-10 89h2c36-58 95-103 185-103zM289-81c121 0 167-111 169-236 1-72-28-120-95-120-143 0-172 180-190 326 37 21 63 30 116 30" id="au"/><path d="M268-708L156 0H36l112-708h120" id="av"/><path d="M40-194c0-236 173-387 423-324 35 10 70 27 107 51-21 157-57 298-66 467H393c-2-31 4-59 3-75-42 58-86 87-177 89C100 16 40-74 40-194zm125-11c-1 71 28 124 92 124 140 0 167-193 184-335-29-15-54-20-96-20-124 0-177 105-180 231" id="aw"/><g id="v"><use transform="matrix(0.02,0,0,0.02,0,0)" xlink:href="#ap"/><use transform="matrix(0.02,0,0,0.02,7.4,0)" xlink:href="#aq"/><use transform="matrix(0.02,0,0,0.02,18.32,0)" xlink:href="#ar"/><use transform="matrix(0.02,0,0,0.02,29.34,0)" xlink:href="#ap"/><use transform="matrix(0.02,0,0,0.02,36.239999999999995,0)" xlink:href="#as"/><use transform="matrix(0.02,0,0,0.02,47.44,0)" xlink:href="#ap"/><use transform="matrix(0.02,0,0,0.02,54.83999999999999,0)" xlink:href="#aq"/><use transform="matrix(0.02,0,0,0.02,65.75999999999999,0)" xlink:href="#at"/><use transform="matrix(0.02,0,0,0.02,84.66,0)" xlink:href="#au"/><use transform="matrix(0.02,0,0,0.02,97.12,0)" xlink:href="#av"/><use transform="matrix(0.02,0,0,0.02,102.60000000000001,0)" xlink:href="#aw"/><use transform="matrix(0.02,0,0,0.02,114.8,0)" xlink:href="#ap"/><use transform="matrix(0.02,0,0,0.02,122.20000000000002,0)" xlink:href="#aq"/></g><path d="M247-226l-44 41V0H78v-708h125v382l208-194h148L333-307 576 0H422" id="ax"/><g id="w"><use transform="matrix(0.02,0,0,0.02,0,0)" xlink:href="#ak"/><use transform="matrix(0.02,0,0,0.02,12.72,0)" xlink:href="#F"/><use transform="matrix(0.02,0,0,0.02,24.1,0)" xlink:href="#ah"/><use transform="matrix(0.02,0,0,0.02,34.32,0)" xlink:href="#ax"/><use transform="matrix(0.02,0,0,0.02,45.6,0)" xlink:href="#F"/><use transform="matrix(0.02,0,0,0.02,56.980000000000004,0)" xlink:href="#Q"/><use transform="matrix(0.02,0,0,0.02,68.38000000000001,0)" xlink:href="#J"/></g><filter id="q" filterUnits="objectBoundingBox" x="-.02" y="-.02" width="1.03" height="1.08"><feOffset result="offOut" in="SourceAlpha" dy="3"/><feGaussianBlur result="blurOut" in="offOut" stdDeviation="2.5"/><feColorMatrix result="colorOut" in="blurOut" values="0 0 0 0 0.018823529411764708 0 0 0 0 0.018823529411764708 0 0 0 0 0.018823529411764708 0 0 0 0.2 0"/><feBlend in="SourceGraphic" in2="colorOut"/></filter><path d="M527-603H211v189h270v101H211v206h333V0H80v-708h447v105" id="ay"/><g id="y"><use transform="matrix(0.02,0,0,0.02,0,0)" xlink:href="#ay"/><use transform="matrix(0.02,0,0,0.02,11.36,0)" xlink:href="#G"/><use transform="matrix(0.02,0,0,0.02,24.02,0)" xlink:href="#Q"/><use transform="matrix(0.02,0,0,0.02,35.64,0)" xlink:href="#P"/><use transform="matrix(0.02,0,0,0.02,41.28,0)" xlink:href="#G"/><use transform="matrix(0.02,0,0,0.02,53.94,0)" xlink:href="#J"/><use transform="matrix(0.02,0,0,0.02,65.52,0)" xlink:href="#ab"/><use transform="matrix(0.02,0,0,0.02,73.08,0)" xlink:href="#J"/><use transform="matrix(0.02,0,0,0.02,84.66,0)" xlink:href="#H"/></g><g id="z"><use transform="matrix(0.02,0,0,0.02,0,0)" xlink:href="#aj"/><use transform="matrix(0.02,0,0,0.02,7.4,0)" xlink:href="#aa"/></g><g id="A"><use transform="matrix(0.02,0,0,0.02,0,0)" xlink:href="#K"/><use transform="matrix(0.02,0,0,0.02,9.22,0)" xlink:href="#O"/><use transform="matrix(0.02,0,0,0.02,21.900000000000002,0)" xlink:href="#ak"/><use transform="matrix(0.02,0,0,0.02,34.62,0)" xlink:href="#ak"/><use transform="matrix(0.02,0,0,0.02,47.33999999999999,0)" xlink:href="#aa"/><use transform="matrix(0.02,0,0,0.02,59.94,0)" xlink:href="#ab"/><use transform="matrix(0.02,0,0,0.02,67.78,0)" xlink:href="#aj"/></g><g id="B"><use transform="matrix(0.02,0,0,0.02,0,0)" xlink:href="#ah"/><use transform="matrix(0.02,0,0,0.02,10.040000000000001,0)" xlink:href="#O"/><use transform="matrix(0.02,0,0,0.02,22.42,0)" xlink:href="#K"/><use transform="matrix(0.02,0,0,0.02,31.64,0)" xlink:href="#aj"/><use transform="matrix(0.02,0,0,0.02,39.04,0)" xlink:href="#aa"/><use transform="matrix(0.02,0,0,0.02,51.64,0)" xlink:href="#ai"/></g><g id="C"><use transform="matrix(0.02,0,0,0.02,0,0)" xlink:href="#K"/><use transform="matrix(0.02,0,0,0.02,9.22,0)" xlink:href="#aj"/><use transform="matrix(0.02,0,0,0.02,16.62,0)" xlink:href="#J"/><use transform="matrix(0.02,0,0,0.02,28.2,0)" xlink:href="#ak"/><use transform="matrix(0.02,0,0,0.02,40.92,0)" xlink:href="#K"/></g><g id="D"><use transform="matrix(0.02,0,0,0.02,0,0)" xlink:href="#H"/><use transform="matrix(0.02,0,0,0.02,12.700000000000001,0)" xlink:href="#J"/><use transform="matrix(0.02,0,0,0.02,24.200000000000006,0)" xlink:href="#am"/><use transform="matrix(0.02,0,0,0.02,34.480000000000004,0)" xlink:href="#J"/><use transform="matrix(0.02,0,0,0.02,46.06,0)" xlink:href="#I"/><use transform="matrix(0.02,0,0,0.02,51.7,0)" xlink:href="#aa"/><use transform="matrix(0.02,0,0,0.02,64.3,0)" xlink:href="#ak"/><use transform="matrix(0.02,0,0,0.02,77.02,0)" xlink:href="#ai"/><use transform="matrix(0.02,0,0,0.02,96.34,0)" xlink:href="#J"/><use transform="matrix(0.02,0,0,0.02,107.92,0)" xlink:href="#G"/><use transform="matrix(0.02,0,0,0.02,120.48,0)" xlink:href="#aj"/></g><filter id="x" filterUnits="objectBoundingBox" x="-.02" y="-.02" width="1.03" height="1.08"><feOffset result="offOut" in="SourceAlpha" dy="3"/><feGaussianBlur result="blurOut" in="offOut" stdDeviation="2.5"/><feColorMatrix result="colorOut" in="blurOut" values="0 0 0 0 0.018823529411764708 0 0 0 0 0.018823529411764708 0 0 0 0 0.018823529411764708 0 0 0 0.2 0"/><feBlend in="SourceGraphic" in2="colorOut"/></filter></defs></g></svg>